<?xml version="1.0" encoding="UTF-8"?>
<svg version="1.1" xmlns="http://www.w3.org/2000/svg" width="1024" height="1024">
<path d="M0 0 C337.92 0 675.84 0 1024 0 C1024 337.92 1024 675.84 1024 1024 C686.08 1024 348.16 1024 0 1024 C0 686.08 0 348.16 0 0 Z " fill="#202020" transform="translate(0,0)"/>
<path d="M0 0 C9.61008187 7.58470124 18.55375218 17.69134924 20.1875 30.3125 C21.12106139 46.56589811 19.73151681 57.78824299 10.1875 71.3125 C9.445 72.385 8.7025 73.4575 7.9375 74.5625 C-1.66631272 84.16631272 -13.17085722 88.50804941 -26.5625 88.5625 C-39.78839419 88.54136755 -49.94243133 84.18303412 -59.5625 75.0625 C-69.70818893 64.39697895 -74.20431173 52.14588789 -74.0234375 37.53125 C-73.09020106 23.29075323 -66.24999699 11.82434741 -55.8125 2.3125 C-51.97574044 -0.40904145 -48.03937609 -2.6311819 -43.8125 -4.6875 C-43.08546875 -5.0484375 -42.3584375 -5.409375 -41.609375 -5.78125 C-28.30997824 -11.26344408 -11.45013761 -7.87983371 0 0 Z " fill="#212121" transform="translate(671.8125,467.6875)"/>
<path d="M0 0 C5.94 0 11.88 0 18 0 C16.35188465 5.76840373 14.09384338 10.98081354 11.36328125 16.3125 C7.15132973 24.63834015 3.14523795 33.05097405 -0.8125 41.5 C-1.50795176 42.98137496 -2.20342736 44.46273874 -2.89892578 45.9440918 C-7.09220283 54.88430607 -11.25539398 63.83807079 -15.375 72.8125 C-16.04366089 74.26849609 -16.04366089 74.26849609 -16.72583008 75.75390625 C-18.9620405 80.64081624 -18.9620405 80.64081624 -21.03442383 85.59838867 C-22.27078433 88.67350327 -23.79115977 91.55505017 -25.3125 94.5 C-29.60313714 102.93577722 -33.44137319 111.5698904 -37.28329468 120.21591187 C-41.13175788 128.87575384 -45.04904779 137.493173 -49.19702148 146.01489258 C-51.40972195 150.59668149 -53.27364733 155.21232009 -55 160 C-55.66 160 -56.32 160 -57 160 C-70.23064553 132.63417371 -70.23064553 132.63417371 -76.5625 119.375 C-89.04416903 93.18049783 -89.04416903 93.18049783 -101.90429688 67.17089844 C-108.78692979 53.53445195 -115.57820428 39.86706757 -122.11181641 26.05957031 C-125.13106522 19.71504527 -128.30179172 13.47916943 -131.71582031 7.33764648 C-134 3.19620829 -134 3.19620829 -134 1 C-127.73 1 -121.46 1 -115 1 C-113.845 3.475 -112.69 5.95 -111.5 8.5 C-107.88997669 16.18900473 -104.14202213 23.79898472 -100.31835938 31.38378906 C-92.01451454 47.86230781 -83.74974504 64.35138449 -75.84765625 81.02734375 C-73.67879812 85.59785757 -71.46911467 90.14710799 -69.24609375 94.69140625 C-68.27488047 96.68222831 -67.30405127 98.6732373 -66.33328247 100.66427612 C-65.70026888 101.95947342 -65.06527474 103.25370484 -64.42819214 104.54690552 C-63.53808198 106.35424341 -62.65561214 108.16533798 -61.7734375 109.9765625 C-61.26216309 111.01893066 -60.75088867 112.06129883 -60.22412109 113.13525391 C-59.08956242 115.79040178 -58.43748089 118.15604726 -58 121 C-57.34 121 -56.68 121 -56 121 C-55.9071875 120.34 -55.814375 119.68 -55.71875 119 C-54.7853502 115.10407041 -53.17244625 111.62091628 -51.5 108 C-51.11690674 107.15969238 -50.73381348 106.31938477 -50.33911133 105.45361328 C-48.89863226 102.29968205 -47.44915395 99.14995478 -46 96 C-45.02906841 93.88311303 -44.05884867 91.76590053 -43.08860779 89.6486969 C-39.44551926 81.69973898 -35.79310692 73.75510412 -32.13536072 65.81288147 C-30.19808322 61.60567761 -28.2641061 57.39700057 -26.33578491 53.1856842 C-18.07546138 35.14590601 -9.33586879 17.50475398 0 0 Z " fill="#F6F6F6" transform="translate(228,408)"/>
<path d="M0 0 C1.0828125 0.45246094 2.165625 0.90492188 3.28125 1.37109375 C19.10752982 8.5445271 31.27146792 21.06071802 38.03515625 37.20703125 C43.64068021 53.43354796 42.6022215 73.45889143 35.15625 88.88671875 C29.07659321 99.99852389 21.66646625 108.18531323 11 115 C9.9275 115.721875 8.855 116.44375 7.75 117.1875 C-5.9328509 124.48712716 -24.26377271 125.62316338 -39.06640625 121.171875 C-57.12978283 113.95614534 -69.27707014 103.05318716 -77.6796875 85.21484375 C-84.85886946 67.73417288 -85.1630545 51.41493938 -78 34 C-70.62897091 18.34188907 -56.75384615 6.16874819 -40.88671875 -0.26171875 C-28.33316212 -4.46590634 -12.28145214 -5.56254082 0 0 Z M-58.1796875 30.48046875 C-66.44165721 41.91602769 -69.54824005 54.15923454 -67.72265625 68.12109375 C-67.28028563 70.14757249 -66.68209531 72.04079007 -66 74 C-65.71640625 74.90234375 -65.4328125 75.8046875 -65.140625 76.734375 C-60.59558863 89.44730281 -51.02094791 98.90871195 -39.0625 104.984375 C-29.17309595 109.50280961 -15.18224228 109.73348884 -5 106 C9.48136137 99.70715471 17.14485397 91.48864616 24.23828125 77.5703125 C27.96353494 67.64807282 27.82991593 52.12345031 24.10546875 42.2265625 C17.68878846 29.30250679 8.84927585 19.63098803 -4.58984375 13.89453125 C-24.76913403 7.4310894 -44.71444989 14.4802775 -58.1796875 30.48046875 Z " fill="#F4F4F4" transform="translate(666,448)"/>
<path d="M0 0 C4.60498249 3.94712785 8.70070645 7.65937845 12.6875 12.125 C16.78340582 16.64333889 20.96985005 21.03079232 25.3125 25.3125 C28.42746268 28.38757776 31.4856486 31.46643099 34.3125 34.8125 C37.81446816 38.93704028 41.65865197 42.69570826 45.5 46.5 C53.42668979 54.35044413 53.42668979 54.35044413 56.5 58 C58.76666566 60.63818302 61.09915435 63.15427387 63.5703125 65.6015625 C64.23353516 66.2615625 64.89675781 66.9215625 65.58007812 67.6015625 C66.91196196 68.91945328 68.24647079 70.23469816 69.58398438 71.546875 C72.39408548 74.31927609 75.11716983 77.06494077 77.5859375 80.1484375 C80.36270242 83.5948581 80.36270242 83.5948581 86 88 C86 60.28 86 32.56 86 4 C90.95 4 95.9 4 101 4 C101 44.26 101 84.52 101 126 C94.87499512 120.74999582 89.20402459 115.63331469 84 109.5 C80.37743989 105.28465733 76.44640224 101.40809696 72.5 97.5 C68.02951463 93.07282279 63.6736355 88.64000953 59.609375 83.83203125 C55.45017586 79.09740892 50.81843799 74.77614873 46.3125 70.375 C43.95644471 67.95526754 41.78120265 65.4409941 39.625 62.84375 C38.00137493 61.00156002 36.29764777 59.26549953 34.55224609 57.5390625 C32.64405004 55.64707321 30.75423846 53.73734208 28.86328125 51.828125 C27.3464096 50.30202824 25.8294812 48.77598787 24.3125 47.25 C23.54099609 46.47011719 22.76949219 45.69023437 21.97460938 44.88671875 C21.23662109 44.14550781 20.49863281 43.40429688 19.73828125 42.640625 C19.06837158 41.96547852 18.39846191 41.29033203 17.70825195 40.59472656 C16.07595037 38.91986953 16.07595037 38.91986953 14 38 C14 66.71 14 95.42 14 125 C9.38 125 4.76 125 0 125 C0 83.75 0 42.5 0 0 Z " fill="#F7F7F6" transform="translate(461,444)"/>
<path d="M0 0 C26.73 0 53.46 0 81 0 C81 4.95 81 9.9 81 15 C59.22 15 37.44 15 15 15 C15 27.54 15 40.08 15 53 C29.19 53 43.38 53 58 53 C58 57.62 58 62.24 58 67 C43.81 67 29.62 67 15 67 C15 79.87 15 92.74 15 106 C37.44 106 59.88 106 83 106 C83 110.95 83 115.9 83 121 C55.61 121 28.22 121 0 121 C0 81.07 0 41.14 0 0 Z " fill="#F7F7F7" transform="translate(242,448)"/>
<path d="M0 0 C0.66 0 1.32 0 2 0 C2.25056152 0.5669458 2.50112305 1.1338916 2.75927734 1.71801758 C8.35723808 14.33437398 14.31680867 26.63933919 20.8359375 38.80224609 C23.68195991 44.17554596 26.35262687 49.63888094 29.04980469 55.08789062 C29.97659523 56.9529018 30.91227241 58.81313199 31.8515625 60.671875 C36.00370552 68.89966853 40.02300525 77.18609866 44 85.5 C51.65780926 101.8874721 51.65780926 101.8874721 60.21875 117.8046875 C62 121 62 121 62 123 C59.77514615 123.21676519 57.54419537 123.3715571 55.3125 123.5 C54.07113281 123.5928125 52.82976562 123.685625 51.55078125 123.78125 C48 123 48 123 46.71714783 121.47445679 C46.33474442 120.8182132 45.952341 120.1619696 45.55834961 119.48583984 C45.13176559 118.7584259 44.70518158 118.03101196 44.26567078 117.28155518 C42.28011956 113.70231108 40.36862951 110.09491215 38.515625 106.4453125 C37.89562874 105.23443718 37.89562874 105.23443718 37.2631073 103.99909973 C35.92165709 101.37629461 34.5856457 98.75076513 33.25 96.125 C32.31793567 94.298835 31.38572367 92.47274537 30.45336914 90.64672852 C22.4403834 74.93527093 14.53292339 59.17133746 6.68139648 43.37866211 C4.79260573 39.58325405 2.89685616 35.79138299 1 32 C0.70619949 32.61723938 0.41239899 33.23447876 0.10969543 33.87042236 C-7.31733943 49.45473264 -14.89683788 64.95336582 -22.62915039 80.38867188 C-24.33196195 83.7888618 -26.03040523 87.19121021 -27.72851562 90.59375 C-33.00414219 101.14787954 -38.31341469 111.66075397 -44 122 C-48.95 122 -53.9 122 -59 122 C-58.21438936 118.07194679 -57.59006119 115.81253656 -55.85791016 112.39111328 C-55.41299225 111.50473175 -54.96807434 110.61835022 -54.50967407 109.70510864 C-54.02437225 108.75312592 -53.53907043 107.80114319 -53.0390625 106.8203125 C-52.53386078 105.81652557 -52.02865906 104.81273865 -51.50814819 103.77853394 C-49.88609092 100.55779753 -48.25602863 97.34120117 -46.625 94.125 C-44.50975554 89.94174657 -42.39816215 85.75666718 -40.2890625 81.5703125 C-39.76558731 80.53199783 -39.24211212 79.49368317 -38.70277405 78.42390442 C-34.16691234 69.3968652 -29.79530233 60.296185 -25.46899414 51.16723633 C-21.82028733 43.48720299 -17.9879328 35.89853608 -14.16113281 28.30615234 C-12.3285634 24.66644446 -10.50833969 21.02058584 -8.6875 17.375 C-8.04563667 16.09111396 -7.40371234 14.80725841 -6.76171875 13.5234375 C-5.88966797 11.77933594 -5.88966797 11.77933594 -5 10 C-3.33333333 6.66666667 -1.66666667 3.33333333 0 0 Z " fill="#F4F4F4" transform="translate(864,446)"/>
<path d="M0 0 C5.28 0 10.56 0 16 0 C25.12064032 19.19018448 34.17174937 38.40449526 42.91235352 57.77124023 C43.48577782 59.04153191 44.05926295 60.31179612 44.6328125 61.58203125 C44.90647141 62.188228 45.18013031 62.79442474 45.46208191 63.41899109 C48.57969917 70.30801687 51.78706819 77.15503187 55 84 C55.80418739 82.28336923 56.6083654 80.56673407 57.41247559 78.85006714 C58.02357978 77.54575915 58.63517934 76.24168321 59.24707031 74.93774414 C61.19347957 70.77446393 63.08182213 66.58848888 64.94189453 62.38598633 C70.68010228 49.44655294 76.5526701 36.60292542 83 24 C84.42278398 21.21139765 85.83779723 18.41897292 87.25 15.625 C87.7442749 14.66134521 87.7442749 14.66134521 88.24853516 13.67822266 C90.50295539 9.21666159 92.30986299 4.70525797 94 0 C99.61 0 105.22 0 111 0 C106.61069239 9.2995684 102.20360321 18.58976382 97.73657227 27.85229492 C87.40198226 49.3005153 77.41754001 70.87634312 67.875 92.6875 C67.50315582 93.53451477 67.13131165 94.38152954 66.74819946 95.25421143 C65.67921738 97.69228857 64.61601341 100.13280051 63.5546875 102.57421875 C63.08205223 103.65081505 63.08205223 103.65081505 62.59986877 104.74916077 C60.43949906 109.74609705 58.64786825 114.81232446 57 120 C56.34 120 55.68 120 55 120 C54.62939453 119.17838379 54.25878906 118.35676758 53.87695312 117.51025391 C46.33789435 100.81497595 38.70368338 84.17220403 30.8644104 67.6156311 C25.6332863 56.55967364 20.57328364 45.43824269 15.61010742 34.25976562 C11.6456103 25.35887857 7.50630637 16.55263705 3.2487793 7.78833008 C2.81992432 6.9042749 2.39106934 6.02021973 1.94921875 5.109375 C1.57112061 4.33561523 1.19302246 3.56185547 0.8034668 2.76464844 C0 1 0 1 0 0 Z " fill="#F5F5F5" transform="translate(714,448)"/>
<path d="M0 0 C4.62 0 9.24 0 14 0 C14 34.98 14 69.96 14 106 C36.44 106 58.88 106 82 106 C82 110.95 82 115.9 82 121 C54.94 121 27.88 121 0 121 C0 81.07 0 41.14 0 0 Z " fill="#F8F8F8" transform="translate(351,448)"/>
<path d="M0 0 C2.24735063 2.82556632 3.89385112 5.60952917 5.42578125 8.875 C5.88629883 9.84767822 6.34681641 10.82035645 6.82128906 11.82250977 C7.31338867 12.87108154 7.80548828 13.91965332 8.3125 15 C13.01286977 24.91277042 17.82963538 34.75753452 22.75 44.5625 C23.06385651 45.18825928 23.37771301 45.81401855 23.70108032 46.45874023 C25.46462082 49.9738878 27.23098137 53.48760641 29 57 C28.07161713 58.31896465 27.13194268 59.62998689 26.1875 60.9375 C25.66542969 61.66839844 25.14335938 62.39929688 24.60546875 63.15234375 C23 65 23 65 20 66 C18.08269126 65.42102513 16.18924562 64.76186443 14.3125 64.0625 C3.38688966 60.5667919 -7.3243318 60.4975945 -17.9609375 65.125 C-20 66 -20 66 -22 66 C-21.67 64.35 -21.34 62.7 -21 61 C-21.928125 61.309375 -22.85625 61.61875 -23.8125 61.9375 C-25.875 62.625 -27.9375 63.3125 -30 64 C-29.44852958 59.76104137 -28.47141204 56.45079624 -26.54736328 52.640625 C-26.03658234 51.61936523 -25.52580139 50.59810547 -24.99954224 49.54589844 C-24.16832352 47.91442871 -24.16832352 47.91442871 -23.3203125 46.25 C-22.7517453 45.11852539 -22.1831781 43.98705078 -21.59738159 42.82128906 C-20.08849183 39.82207364 -18.5727832 36.82651421 -17.05358887 33.83251953 C-15.5156553 30.79749143 -13.98669267 27.75795321 -12.45703125 24.71875 C-9.73472555 19.31374425 -7.00433804 13.91288629 -4.27056885 8.51367188 C-2.83829181 5.68007925 -1.41549141 2.84200785 0 0 Z " fill="#212121" transform="translate(865,477)"/>
<path d="M0 0 C0.66 0 1.32 0 2 0 C3.234375 1.2578125 3.234375 1.2578125 4.75 3.125 C10.41114233 9.81214894 16.77099269 15.84874729 23 22 C21 23 21 23 18.5234375 22.22265625 C16.96496094 21.64837891 16.96496094 21.64837891 15.375 21.0625 C4.40532764 17.57987172 -6.32582736 17.4513153 -16.9609375 22.22265625 C-17.63382813 22.47917969 -18.30671875 22.73570312 -19 23 C-19.66 22.67 -20.32 22.34 -21 22 C-20.14277344 21.154375 -19.28554688 20.30875 -18.40234375 19.4375 C-12.37659109 13.4680957 -6.47009707 7.49118185 -1 1 C-0.67 0.67 -0.34 0.34 0 0 Z " fill="#E2E2E2" transform="translate(864,520)"/>
<path d="M0 0 C0.66 0 1.32 0 2 0 C2.83790789 1.78953185 3.67019396 3.58169695 4.5 5.375 C4.9640625 6.37273437 5.428125 7.37046875 5.90625 8.3984375 C7 11 7 11 7 13 C5.68 13 4.36 13 3 13 C3 12.34 3 11.68 3 11 C1.02 11 -0.96 11 -3 11 C-3 11.66 -3 12.32 -3 13 C-3.99 13.33 -4.98 13.66 -6 14 C-2.90009699 3.90882638 -2.90009699 3.90882638 0 0 Z " fill="#E7E7E7" transform="translate(864,446)"/>
<path d="M0 0 C7.57142857 6.28571429 7.57142857 6.28571429 10 10 C6.696686 10.88935377 3.37705625 11.46274105 0 12 C0 8.04 0 4.08 0 0 Z " fill="#EAEAEA" transform="translate(461,444)"/>
<path d="M0 0 C4.68191549 0.45738073 6.63104174 2.19110394 9.8125 5.5625 C10.60269531 6.38878906 11.39289062 7.21507812 12.20703125 8.06640625 C12.79871094 8.70449219 13.39039063 9.34257813 14 10 C10.8568669 11.57156655 8.634536 10.11705576 5.375 9.0625 C4.18648437 8.68222656 2.99796875 8.30195312 1.7734375 7.91015625 C0.85820313 7.60980469 -0.05703125 7.30945313 -1 7 C-0.34 6.67 0.32 6.34 1 6 C1.65213292 3.97536745 1.65213292 3.97536745 2 2 C1.34 2 0.68 2 0 2 C0 1.34 0 0.68 0 0 Z " fill="#D1D1D1" transform="translate(873,532)"/>
<path d="M0 0 C0.66 0.33 1.32 0.66 2 1 C2 5.23938937 0.67244115 7.74659338 -2 11 C-2 10.34 -2 9.68 -2 9 C-2.66 9 -3.32 9 -4 9 C-4 9.66 -4 10.32 -4 11 C-4.66 10.67 -5.32 10.34 -6 10 C-5.67 9.34 -5.34 8.68 -5 8 C-5.66 7.67 -6.32 7.34 -7 7 C-4.69 4.69 -2.38 2.38 0 0 Z M-3 11 C-2.67 11.66 -2.34 12.32 -2 13 C-2.66 12.67 -3.32 12.34 -4 12 C-3.67 11.67 -3.34 11.34 -3 11 Z " fill="#D3D3D3" transform="translate(864,520)"/>
<path d="M0 0 C0.99 1.32 1.98 2.64 3 4 C2.1875 7.25 2.1875 7.25 1 10 C-0.65 10.33 -2.3 10.66 -4 11 C-4.33 12.65 -4.66 14.3 -5 16 C-5.66 15.34 -6.32 14.68 -7 14 C-4.69 9.38 -2.38 4.76 0 0 Z " fill="#2C2C2C" transform="translate(865,477)"/>
<path d="M0 0 C2.5 1.375 2.5 1.375 5 3 C5 3.66 5 4.32 5 5 C3.21189234 5.69670416 1.41937948 6.38211189 -0.375 7.0625 C-1.37273438 7.44535156 -2.37046875 7.82820312 -3.3984375 8.22265625 C-6 9 -6 9 -8 8 C-5.36 5.36 -2.72 2.72 0 0 Z " fill="#D1D1D1" transform="translate(851,534)"/>
<path d="M0 0 C1.87939453 -0.34057617 1.87939453 -0.34057617 4.1328125 -0.29296875 C4.93847656 -0.28330078 5.74414062 -0.27363281 6.57421875 -0.26367188 C7.41597656 -0.23853516 8.25773438 -0.21339844 9.125 -0.1875 C9.97449219 -0.17396484 10.82398438 -0.16042969 11.69921875 -0.14648438 C13.79974837 -0.11108219 15.89995293 -0.05727401 18 0 C18 0.33 18 0.66 18 1 C12.39 1 6.78 1 1 1 C1.33 2.98 1.66 4.96 2 7 C0.02 7.66 -1.96 8.32 -4 9 C-2.94124926 5.59687262 -1.99097846 2.98646769 0 0 Z " fill="#C7C7C7" transform="translate(228,408)"/>
<path d="M0 0 C-1.32 2.97 -2.64 5.94 -4 9 C-5.32 8.34 -6.64 7.68 -8 7 C-8 5.02 -8 3.04 -8 1 C-5.07175348 0.02391783 -3.04386724 -0.08226668 0 0 Z " fill="#EFEFEF" transform="translate(825,448)"/>
<path d="M0 0 C2 2 2 2 2.25 4.3125 C1.96912355 7.33192179 1.53302796 9.37195207 0 12 C-2.625 12.8125 -2.625 12.8125 -5 13 C-4.54554036 11.58208592 -4.08625056 10.16571954 -3.625 8.75 C-3.24214844 7.56664062 -3.24214844 7.56664062 -2.8515625 6.359375 C-2.04826333 4.13372042 -1.10288338 2.09068328 0 0 Z " fill="#2B2B2B" transform="translate(778,548)"/>
<path d="M0 0 C2.125 2.125 2.125 2.125 4 5 C3.25 8.3125 3.25 8.3125 2 11 C-0.64465038 7.8745041 -1.84414715 4.91211733 -3 1 C-2.01 0.67 -1.02 0.34 0 0 Z " fill="#272727" transform="translate(147,472)"/>
<path d="M0 0 C0.66 0.66 1.32 1.32 2 2 C1.01 3.32 0.02 4.64 -1 6 C-1.33 5.67 -1.66 5.34 -2 5 C-2.33 6.65 -2.66 8.3 -3 10 C-3.99 9.34 -4.98 8.68 -6 8 C-5.67 6.35 -5.34 4.7 -5 3 C-3.35 2.67 -1.7 2.34 0 2 C0 1.34 0 0.68 0 0 Z M-8 7 C-7.34 7.66 -6.68 8.32 -6 9 C-6.66 9 -7.32 9 -8 9 C-8 8.34 -8 7.68 -8 7 Z " fill="#1C1C1C" transform="translate(866,485)"/>
<path d="M0 0 C0.66 0.33 1.32 0.66 2 1 C2.33 1.99 2.66 2.98 3 4 C0.36 5.98 -2.28 7.96 -5 10 C-5.33 9.01 -5.66 8.02 -6 7 C-5.34 7 -4.68 7 -4 7 C-3.896875 6.401875 -3.79375 5.80375 -3.6875 5.1875 C-2.91123545 2.71756736 -1.92911079 1.67748765 0 0 Z " fill="#EEEEEE" transform="translate(616,465)"/>
<path d="M0 0 C0 1.65 0 3.3 0 5 C-1.32 4.67 -2.64 4.34 -4 4 C-4 3.34 -4 2.68 -4 2 C-9.28 2 -14.56 2 -20 2 C-20 1.67 -20 1.34 -20 1 C-19.02417969 0.93941406 -18.04835938 0.87882812 -17.04296875 0.81640625 C-15.77066406 0.73261719 -14.49835937 0.64882813 -13.1875 0.5625 C-11.92292969 0.48128906 -10.65835938 0.40007812 -9.35546875 0.31640625 C-1.323049 -0.44101633 -1.323049 -0.44101633 0 0 Z " fill="#505050" transform="translate(734,446)"/>
<path d="M0 0 C0.66 0 1.32 0 2 0 C3.06775224 1.96466413 4.06553465 3.96855359 5 6 C4.67 6.66 4.34 7.32 4 8 C2.125 7.8125 2.125 7.8125 0 7 C-1.25 4.4375 -1.25 4.4375 -2 2 C-1.34 2 -0.68 2 0 2 C0 1.34 0 0.68 0 0 Z " fill="#323232" transform="translate(746,520)"/>
<path d="M0 0 C0.66 0 1.32 0 2 0 C1.67 2.64 1.34 5.28 1 8 C-0.98 8.33 -2.96 8.66 -5 9 C-3.35 6.03 -1.7 3.06 0 0 Z " fill="#2D2D2D" transform="translate(701,536)"/>
<path d="M0 0 C1.99097846 2.98646769 2.94124926 5.59687262 4 9 C3.38125 8.79375 2.7625 8.5875 2.125 8.375 C1.42375 8.25125 0.7225 8.1275 0 8 C-0.66 8.66 -1.32 9.32 -2 10 C-2.22036864 6.14354879 -1.60355101 3.50776784 0 0 Z " fill="#292929" transform="translate(868,483)"/>
<path d="M0 0 C0.33 0 0.66 0 1 0 C1.75 3.25 1.75 3.25 2 7 C0.125 9.3125 0.125 9.3125 -2 11 C-2.33 11.66 -2.66 12.32 -3 13 C-3.66 13 -4.32 13 -5 13 C-4.731875 12.34 -4.46375 11.68 -4.1875 11 C-2.74294953 7.35060933 -1.37128822 3.67754567 0 0 Z " fill="#2B2B2B" transform="translate(186,536)"/>
<path d="M0 0 C2.31 1.98 4.62 3.96 7 6 C6.34 6.66 5.68 7.32 5 8 C4.34 7.34 3.68 6.68 3 6 C2.01 6 1.02 6 0 6 C-1.125 2.25 -1.125 2.25 0 0 Z " fill="#292929" transform="translate(513,520)"/>
<path d="M0 0 C0.33 0.66 0.66 1.32 1 2 C1.61875 2.12375 2.2375 2.2475 2.875 2.375 C5.73137594 3.21511057 6.5682487 4.43791873 8 7 C7.67 7.99 7.34 8.98 7 10 C5.82438854 8.90536178 4.6597511 7.79892814 3.5 6.6875 C2.52546875 5.76517578 2.52546875 5.76517578 1.53125 4.82421875 C0 3 0 3 0 0 Z " fill="#E6E6E6" transform="translate(480,483)"/>
<path d="M0 0 C2.35953094 2.35953094 2.49141413 3.77895617 3 7 C2.01 7 1.02 7 0 7 C-0.33 7.66 -0.66 8.32 -1 9 C-1.66 8.67 -2.32 8.34 -3 8 C-1.125 2.25 -1.125 2.25 0 0 Z " fill="#2E2E2E" transform="translate(236,429)"/>
<path d="M0 0 C1 3 1 3 1 6 C0.34 6 -0.32 6 -1 6 C-1.66 7.32 -2.32 8.64 -3 10 C-3.66 8.02 -4.32 6.04 -5 4 C-4.0409375 3.8453125 -4.0409375 3.8453125 -3.0625 3.6875 C-2.381875 3.460625 -1.70125 3.23375 -1 3 C-0.67 2.01 -0.34 1.02 0 0 Z " fill="#2A2A2A" transform="translate(918,538)"/>
<path d="M0 0 C1.46726798 3.81489674 0.43336419 6.29011622 -1 10 C-1.66 10 -2.32 10 -3 10 C-3 10.66 -3 11.32 -3 12 C-3.66 12 -4.32 12 -5 12 C-3.68938409 7.76570244 -2.05643741 3.92592596 0 0 Z " fill="#323232" transform="translate(203,500)"/>
<path d="M0 0 C0.66 0.33 1.32 0.66 2 1 C1.34 3.97 0.68 6.94 0 10 C-0.99 10 -1.98 10 -3 10 C-3.33 9.34 -3.66 8.68 -4 8 C-3.22265625 6.0546875 -3.22265625 6.0546875 -2.0625 3.875 C-1.49208984 2.78832031 -1.49208984 2.78832031 -0.91015625 1.6796875 C-0.60980469 1.12539063 -0.30945313 0.57109375 0 0 Z " fill="#E3E3E3" transform="translate(804,457)"/>
<path d="M0 0 C2.97 0.495 2.97 0.495 6 1 C4.60667426 4.36720387 3.0210714 5.9859524 0 8 C0 5.36 0 2.72 0 0 Z " fill="#292929" transform="translate(601,456)"/>
<path d="M0 0 C2.18840439 3.28260659 4.15885893 6.50818073 6 10 C5.67 10.66 5.34 11.32 5 12 C3.046875 11.3203125 3.046875 11.3203125 1 10 C0.390625 7.6171875 0.390625 7.6171875 0.25 4.875 C0.19328125 3.96492188 0.1365625 3.05484375 0.078125 2.1171875 C0.05234375 1.41851562 0.0265625 0.71984375 0 0 Z " fill="#343434" transform="translate(104,430)"/>
<path d="M0 0 C-1.12451727 2.9719385 -2.22293791 5.33440687 -4 8 C-4.33 7.34 -4.66 6.68 -5 6 C-5.99 6.495 -5.99 6.495 -7 7 C-6.22006468 2.47637516 -4.81844319 0 0 0 Z " fill="#323232" transform="translate(779,512)"/>
<path d="M0 0 C1.94268841 2.91403262 3.46395304 5.85808576 5 9 C4.34 9 3.68 9 3 9 C2.67 9.66 2.34 10.32 2 11 C1.566875 9.2984375 1.566875 9.2984375 1.125 7.5625 C0.75375 6.386875 0.3825 5.21125 0 4 C-0.66 3.67 -1.32 3.34 -2 3 C-1.34 2.01 -0.68 1.02 0 0 Z " fill="#353535" transform="translate(588,532)"/>
<path d="M0 0 C0.66 0.99 1.32 1.98 2 3 C1.34 4.32 0.68 5.64 0 7 C-0.66 7 -1.32 7 -2 7 C-2.33 8.65 -2.66 10.3 -3 12 C-3.66 12 -4.32 12 -5 12 C-3.68938409 7.76570244 -2.05643741 3.92592596 0 0 Z " fill="#353535" transform="translate(794,512)"/>
<path d="M0 0 C2.91517292 1.07401108 4.77810176 1.77810176 7 4 C7 4.99 7 5.98 7 7 C4.13302508 5.71480435 2.02392288 4.42870746 0 2 C0 1.34 0 0.68 0 0 Z " fill="#F3F3F3" transform="translate(554,561)"/>
<path d="M0 0 C2 2 2 2 2.125 5.625 C2.08375 6.73875 2.0425 7.8525 2 9 C2.66 9 3.32 9 4 9 C4 9.66 4 10.32 4 11 C3.01 11 2.02 11 1 11 C0.34 11.66 -0.32 12.32 -1 13 C-0.9278125 12.31292969 -0.855625 11.62585938 -0.78125 10.91796875 C-0.6884375 10.01691406 -0.595625 9.11585938 -0.5 8.1875 C-0.4071875 7.29417969 -0.314375 6.40085937 -0.21875 5.48046875 C0.04392401 2.91694901 0.04392401 2.91694901 0 0 Z " fill="#191919" transform="translate(779,547)"/>
<path d="M0 0 C1.67542976 0.28604898 3.34385343 0.61781233 5 1 C4.67 2.32 4.34 3.64 4 5 C4 4.34 4 3.68 4 3 C3.34 3 2.68 3 2 3 C2 3.66 2 4.32 2 5 C1.34 4.67 0.68 4.34 0 4 C0.33 3.34 0.66 2.68 1 2 C0.34 1.67 -0.32 1.34 -1 1 C-0.67 0.67 -0.34 0.34 0 0 Z M3 5 C3.33 5.66 3.66 6.32 4 7 C3.34 6.67 2.68 6.34 2 6 C2.33 5.67 2.66 5.34 3 5 Z " fill="#D9D9D9" transform="translate(858,526)"/>
<path d="M0 0 C0.66 0.66 1.32 1.32 2 2 C1.8125 4.0625 1.8125 4.0625 1 6 C0.01 6.33 -0.98 6.66 -2 7 C-2.66 6.67 -3.32 6.34 -4 6 C-4 5.34 -4 4.68 -4 4 C-3.34 4 -2.68 4 -2 4 C-2 3.34 -2 2.68 -2 2 C-1.34 2 -0.68 2 0 2 C0 1.34 0 0.68 0 0 Z " fill="#1A1A1A" transform="translate(189,481)"/>
<path d="M0 0 C0 0.66 0 1.32 0 2 C-0.66 2 -1.32 2 -2 2 C-2 2.66 -2 3.32 -2 4 C-2.66 4 -3.32 4 -4 4 C-4.33 4.99 -4.66 5.98 -5 7 C-5.99 7 -6.98 7 -8 7 C-6.47663111 3.31852519 -4.31953005 0 0 0 Z " fill="#282828" transform="translate(687,556)"/>
<path d="M0 0 C0.66 0.66 1.32 1.32 2 2 C0.68 4.97 -0.64 7.94 -2 11 C-2.33 11 -2.66 11 -3 11 C-3.32613618 6.32538149 -2.70582788 3.83325617 0 0 Z " fill="#E9E9E9" transform="translate(780,539)"/>
<path d="M0 0 C0.33 0.66 0.66 1.32 1 2 C1.99 2 2.98 2 4 2 C2.25 5.875 2.25 5.875 0 7 C-0.66 6.67 -1.32 6.34 -2 6 C-1.34 4.02 -0.68 2.04 0 0 Z " fill="#2B2B2B" transform="translate(676,538)"/>
<path d="M0 0 C3.16115776 1.36983503 3.9927092 1.9890638 6 5 C4.125 5.625 4.125 5.625 2 6 C1.34 5.34 0.68 4.68 0 4 C0 2.68 0 1.36 0 0 Z " fill="#343434" transform="translate(498,505)"/>
<path d="M0 0 C1.32 0.33 2.64 0.66 4 1 C4.33 2.32 4.66 3.64 5 5 C4.01 5.495 4.01 5.495 3 6 C2.01 5.67 1.02 5.34 0 5 C0 3.35 0 1.7 0 0 Z " fill="#2A2A2A" transform="translate(737,504)"/>
<path d="M0 0 C-0.33 1.32 -0.66 2.64 -1 4 C-3.375 4.625 -3.375 4.625 -6 5 C-6.66 4.34 -7.32 3.68 -8 3 C-2.25 0 -2.25 0 0 0 Z " fill="#292929" transform="translate(630,463)"/>
<path d="M0 0 C1.625 1.6875 1.625 1.6875 3 4 C2.1875 6.75 2.1875 6.75 1 9 C0.34 8.67 -0.32 8.34 -1 8 C-1.125 2.25 -1.125 2.25 0 0 Z " fill="#2D2D2D" transform="translate(115,453)"/>
<path d="M0 0 C1.32 0 2.64 0 4 0 C4.625 1.875 4.625 1.875 5 4 C4.34 4.66 3.68 5.32 3 6 C2.01 5.34 1.02 4.68 0 4 C0 2.68 0 1.36 0 0 Z " fill="#292929" transform="translate(145,520)"/>
<path d="M0 0 C1.65 1.65 3.3 3.3 5 5 C4.01 6.485 4.01 6.485 3 8 C2.34 7.67 1.68 7.34 1 7 C0.59270772 4.67843403 0.25561323 2.3431213 0 0 Z " fill="#292929" transform="translate(833,496)"/>
<path d="M0 0 C1.65 1.65 3.3 3.3 5 5 C4.34 5.66 3.68 6.32 3 7 C1.68 6.01 0.36 5.02 -1 4 C-0.67 2.68 -0.34 1.36 0 0 Z " fill="#313131" transform="translate(595,545)"/>
<path d="M0 0 C3.16115776 1.36983503 3.9927092 1.9890638 6 5 C5.01 5.495 5.01 5.495 4 6 C2 4.6875 2 4.6875 0 3 C0 2.01 0 1.02 0 0 Z " fill="#2E2E2E" transform="translate(490,497)"/>
<path d="M0 0 C1.74627478 2.61941217 2.38722388 4.03824877 3 7 C1.02 7.99 1.02 7.99 -1 9 C-0.67 6.03 -0.34 3.06 0 0 Z " fill="#E6E6E6" transform="translate(746,484)"/>
<path d="M0 0 C0.33 0.99 0.66 1.98 1 3 C1.66 3 2.32 3 3 3 C2.34 6.3 1.68 9.6 1 13 C0.67 13 0.34 13 0 13 C0 8.71 0 4.42 0 0 Z " fill="#1A1A1A" transform="translate(476,483)"/>
<path d="M0 0 C0.33 0.66 0.66 1.32 1 2 C3.01669827 3.13350534 3.01669827 3.13350534 5 4 C4.67 4.66 4.34 5.32 4 6 C0.83884224 4.63016497 0.0072908 4.0109362 -2 1 C-1.34 0.67 -0.68 0.34 0 0 Z " fill="#2D2D2D" transform="translate(463,442)"/>
<path d="M0 0 C1.875 0.3125 1.875 0.3125 4 1 C4.66 1.99 5.32 2.98 6 4 C5.34 4.66 4.68 5.32 4 6 C2.62437146 4.71034824 1.29233607 3.37310707 0 2 C0 1.34 0 0.68 0 0 Z " fill="#2A2A2A" transform="translate(536,546)"/>
<path d="M0 0 C0.33 1.32 0.66 2.64 1 4 C0.34 4 -0.32 4 -1 4 C-1.33 4.66 -1.66 5.32 -2 6 C-2.33 5.01 -2.66 4.02 -3 3 C-3.66 2.34 -4.32 1.68 -5 1 C-3 0 -3 0 0 0 Z " fill="#E5E5E5" transform="translate(758,508)"/>
<path d="M0 0 C1.37432457 3.81756824 0.67975039 7.07255329 0 11 C-0.66 11 -1.32 11 -2 11 C-1.125 3.375 -1.125 3.375 0 0 Z " fill="#C8C8C8" transform="translate(586,487)"/>
<path d="M0 0 C-0.33 0.99 -0.66 1.98 -1 3 C-4.0625 4.1875 -4.0625 4.1875 -7 5 C-7 4.01 -7 3.02 -7 2 C-4 0 -4 0 0 0 Z " fill="#FAFAFA" transform="translate(600,472)"/>
</svg>
